<?xml version="1.0" standalone="no"?>
<!DOCTYPE svg PUBLIC "-//W3C//DTD SVG 20010904//EN"
 "http://www.w3.org/TR/2001/REC-SVG-20010904/DTD/svg10.dtd">
<svg version="1.0" xmlns="http://www.w3.org/2000/svg"
 width="1280.000000pt" height="1280.000000pt" viewBox="0 0 1280.000000 1280.000000"
 preserveAspectRatio="xMidYMid meet">
<metadata>
Created by potrace 1.11, written by Peter Selinger 2001-2013
</metadata>
<g transform="translate(0.000000,1280.000000) scale(0.100000,-0.100000)"
fill="#000000" stroke="none">
<path d="M2775 8019 c-22 -4 -62 -10 -90 -14 -92 -12 -247 -52 -312 -81 -17
-8 -34 -14 -38 -14 -4 0 -43 -18 -87 -40 -189 -96 -301 -212 -351 -365 -26
-80 -33 -296 -12 -374 57 -216 240 -347 525 -378 25 -3 48 -9 51 -14 3 -6 11
-3 19 6 7 8 11 18 8 20 -3 3 -72 39 -154 81 -167 84 -208 119 -255 219 -34 73
-43 118 -42 213 4 219 201 398 583 530 l105 37 180 0 c99 -1 239 -4 310 -8 72
-5 164 -10 205 -12 41 -2 127 -6 190 -10 63 -3 151 -8 195 -10 320 -15 460
-26 554 -41 19 -3 53 -8 75 -10 23 -3 52 -7 66 -10 14 -2 43 -7 65 -9 22 -3
83 -12 135 -20 52 -7 115 -16 140 -20 25 -3 56 -8 70 -10 27 -5 55 -9 140 -21
30 -4 57 -8 60 -9 37 -9 70 -16 95 -20 100 -17 239 -46 244 -51 2 -2 -9 -4
-25 -5 -16 0 -36 -2 -44 -3 -8 -2 -35 -6 -60 -9 -25 -4 -54 -8 -65 -11 -11 -2
-42 -9 -70 -16 -27 -6 -81 -21 -120 -32 -38 -12 -74 -23 -80 -24 -68 -15 -401
-159 -525 -226 -77 -42 -310 -193 -347 -225 -11 -10 -35 -29 -53 -43 -124 -95
-278 -246 -497 -487 -36 -39 -44 -43 -143 -63 -210 -44 -492 -152 -641 -245
-100 -63 -259 -204 -259 -229 0 -8 3 -8 8 -1 28 41 265 168 397 213 57 20 327
103 443 136 61 17 62 22 -21 -88 -56 -73 -186 -273 -282 -431 -100 -165 -211
-336 -261 -403 l-55 -73 -102 55 c-167 89 -496 252 -586 290 -73 32 -217 74
-306 90 -162 30 -174 32 -325 51 -19 2 -57 7 -85 11 -77 10 -275 12 -314 3
-20 -4 -52 -10 -71 -13 -152 -23 -367 -140 -508 -274 -179 -172 -249 -356
-229 -607 16 -207 83 -369 202 -489 169 -170 394 -244 760 -250 304 -5 579 60
858 204 96 49 261 150 277 169 3 3 39 33 80 66 128 101 279 246 402 386 l66
75 89 -42 c110 -52 241 -97 358 -123 117 -26 175 -32 320 -36 l120 -3 1 -39
c8 -186 49 -297 169 -453 54 -69 150 -167 240 -245 107 -91 112 -94 73 -40
-92 128 -172 308 -204 460 -24 112 -37 294 -23 316 4 6 29 15 55 20 96 15 115
20 166 40 155 61 257 126 359 228 161 162 222 317 215 546 -7 246 -98 450
-257 576 l-57 46 50 89 c46 81 223 357 248 387 5 6 49 64 96 127 161 215 321
381 460 477 39 27 154 85 154 78 0 -3 10 0 22 6 31 17 182 14 254 -5 75 -19
84 -20 84 -3 0 19 -56 42 -170 72 -319 83 -567 148 -583 151 -10 2 -26 5 -35
8 -9 3 -28 7 -42 10 -21 4 -87 18 -140 31 -20 5 -160 36 -185 41 -19 3 -44 9
-90 19 -108 23 -164 35 -185 39 -14 2 -63 11 -110 20 -184 34 -507 79 -725
101 -230 22 -245 24 -400 30 -223 10 -377 11 -420 4z m2198 -681 c-173 -191
-390 -492 -558 -773 -43 -71 -81 -133 -84 -137 -4 -4 -22 -3 -41 3 -58 17
-161 39 -220 45 -30 3 -68 7 -85 9 -16 2 -56 4 -88 4 l-58 1 71 88 c210 256
471 480 737 631 80 46 311 149 337 150 5 1 0 -9 -11 -21z m-966 -953 c85 -7
203 -36 238 -59 l24 -16 -36 -62 c-150 -263 -343 -700 -397 -899 -27 -100 -47
-193 -59 -276 -3 -17 -8 -36 -11 -41 -10 -17 -226 -2 -356 24 -161 33 -445
136 -437 159 3 5 68 104 145 219 78 114 252 376 389 581 l248 373 40 4 c47 4
113 2 212 -7z m458 -202 c69 -69 133 -201 155 -324 13 -71 16 -213 6 -273 -34
-200 -163 -356 -377 -454 -69 -32 -195 -73 -202 -66 -12 12 64 323 124 510 63
195 120 339 210 532 21 46 39 87 39 93 0 16 17 10 45 -18z m-3035 -509 c41 -6
181 -31 225 -39 17 -3 53 -12 80 -20 28 -7 75 -21 106 -29 220 -61 613 -239
795 -359 l32 -21 -59 -77 c-32 -42 -64 -83 -71 -91 -7 -7 -38 -43 -67 -78
-138 -163 -345 -347 -521 -462 -160 -105 -436 -188 -680 -205 -188 -13 -298
-5 -408 29 -285 88 -452 303 -469 605 -11 191 37 323 160 447 131 131 362 265
518 301 62 14 266 13 359 -1z"/>
<path d="M5427 6214 c-60 -40 -147 -124 -193 -186 -39 -53 -42 -62 -42 -120 0
-35 6 -75 14 -89 13 -26 11 -29 -52 -95 -36 -38 -74 -85 -84 -104 -24 -48 -56
-154 -64 -215 -4 -27 -9 -64 -12 -81 -3 -23 -1 -31 10 -31 8 0 13 4 10 9 -3 4
-1 8 3 8 12 0 104 88 101 97 -10 41 80 280 120 316 15 14 22 13 72 -10 64 -30
179 -40 297 -26 86 11 94 33 -67 -182 -112 -150 -211 -326 -266 -473 -38 -99
-30 -244 19 -338 59 -115 213 -167 355 -120 109 36 268 168 400 331 31 39 63
77 71 85 8 8 41 55 73 104 43 65 58 82 53 60 -6 -36 -7 -175 0 -229 7 -65 13
-83 38 -138 61 -129 156 -175 362 -175 98 0 202 25 304 74 83 40 223 132 286
188 47 42 55 44 55 12 0 -25 14 -73 35 -121 29 -65 98 -120 175 -140 57 -15
208 -12 238 4 12 7 22 10 22 7 0 -12 201 92 220 114 20 23 90 69 94 62 3 -5 8
-24 11 -43 13 -76 69 -141 150 -175 44 -18 155 -21 214 -5 92 26 205 124 293
254 23 34 47 67 52 74 30 34 36 43 36 52 0 5 4 12 8 15 5 3 -1 -52 -14 -122
-36 -206 -37 -232 -14 -270 11 -18 30 -36 43 -41 20 -8 26 0 79 108 110 226
246 507 288 596 154 327 162 340 294 500 127 156 271 258 379 271 58 7 86 1
118 -27 22 -19 24 -28 23 -97 -1 -197 -81 -455 -235 -757 -42 -83 -79 -167
-83 -186 -11 -62 -8 -225 6 -270 16 -55 77 -115 132 -130 70 -20 155 -15 206
10 104 53 239 170 413 359 42 45 80 83 83 85 4 1 9 -27 10 -63 4 -88 39 -190
80 -239 19 -22 60 -52 90 -67 47 -23 72 -28 146 -30 97 -2 169 16 273 68 53
27 178 115 183 130 8 19 22 5 28 -29 12 -65 65 -153 93 -153 6 0 11 -4 11 -9
0 -17 101 -43 168 -43 174 1 256 71 502 426 20 28 56 80 80 114 25 35 50 71
55 80 6 9 15 21 21 27 26 25 51 82 43 102 -9 26 -35 36 -57 22 -9 -6 -50 -61
-89 -122 -39 -62 -79 -121 -87 -132 -9 -11 -52 -68 -96 -126 -197 -261 -374
-376 -427 -275 -27 51 -21 136 21 261 20 61 40 119 45 130 6 11 30 68 56 128
83 196 271 532 439 786 19 30 34 57 32 59 -3 2 -37 4 -77 3 -92 -1 -189 -32
-239 -77 l-37 -33 -22 54 c-33 79 -103 144 -174 162 -47 12 -183 10 -235 -4
-137 -36 -262 -114 -401 -252 -103 -102 -204 -227 -263 -326 -38 -63 -120
-245 -111 -245 3 0 0 -7 -7 -15 -7 -8 -9 -15 -6 -15 4 0 2 -8 -3 -18 -5 -10
-12 -38 -16 -62 -7 -50 -21 -70 -146 -215 -139 -162 -318 -335 -346 -335 -7 0
-13 -4 -13 -8 0 -11 -56 -37 -96 -46 -43 -9 -74 17 -80 69 -6 45 30 159 95
298 233 495 313 809 251 985 -40 114 -129 164 -277 157 -48 -2 -109 -10 -135
-18 -27 -8 -48 -14 -48 -12 0 2 -37 -14 -82 -36 -96 -47 -139 -76 -226 -149
-10 -9 -11 3 -7 57 3 37 8 76 11 86 6 18 -3 20 -81 18 -129 -5 -221 -25 -238
-52 -7 -11 -2 -27 17 -57 42 -67 57 -140 42 -200 -42 -157 -450 -773 -645
-973 -114 -116 -219 -168 -265 -130 -25 21 -39 79 -33 141 11 106 103 350 218
575 91 179 269 486 325 562 13 17 24 35 24 38 0 3 12 22 26 41 30 39 34 37
-69 34 -67 -2 -85 -5 -136 -21 -42 -14 -117 -63 -124 -81 -2 -7 -14 9 -26 36
-56 128 -140 183 -281 184 -176 1 -352 -86 -528 -259 -257 -253 -404 -528
-428 -804 -6 -59 -6 -61 -83 -135 -43 -41 -91 -85 -107 -98 -51 -40 -227 -121
-299 -138 -100 -23 -214 -24 -248 -1 -90 59 -99 288 -20 531 74 228 294 557
439 657 111 76 281 69 315 -13 10 -24 10 -40 0 -77 -19 -72 -59 -128 -175
-243 -101 -100 -73 -104 50 -7 136 108 230 230 241 316 22 161 -142 248 -377
199 -44 -10 -166 -75 -232 -123 -78 -59 -248 -228 -308 -308 -67 -89 -122
-181 -159 -266 -26 -59 -39 -78 -61 -86 -19 -7 -50 -44 -100 -119 -164 -246
-325 -430 -450 -513 -47 -31 -62 -36 -112 -35 -91 1 -128 37 -128 126 0 22 23
108 51 192 102 300 209 485 449 780 18 22 127 140 193 209 l47 50 -28 44 -28
43 -77 -54 c-42 -31 -85 -64 -96 -75 -21 -21 -60 -40 -137 -66 -58 -20 -84
-24 -194 -31 l-95 -6 26 28 c14 16 39 52 56 80 54 89 31 179 -61 238 -52 34
-100 34 -149 0z m2829 -160 c45 -30 57 -69 58 -179 0 -131 -22 -248 -76 -395
-10 -30 -21 -59 -22 -65 -9 -33 -74 -182 -118 -270 -98 -199 -207 -329 -323
-386 -132 -64 -240 -37 -277 71 -29 84 -6 305 49 475 31 97 151 332 205 400 4
6 36 48 69 95 98 134 198 224 286 256 52 18 119 17 149 -2z m3283 1 c16 -8 33
-27 40 -42 14 -35 29 -113 25 -139 -1 -10 -5 -51 -8 -89 -9 -113 -70 -324
-137 -475 -108 -241 -176 -355 -269 -450 -93 -94 -163 -131 -255 -133 -115 -3
-159 56 -162 217 -2 84 16 221 40 301 82 277 319 644 496 767 77 54 174 72
230 43z m-6082 -44 c9 -35 -34 -116 -53 -100 -17 14 -18 69 -3 103 15 32 48
30 56 -3z m494 -244 c-10 -9 -11 -8 -5 6 3 10 9 15 12 12 3 -3 0 -11 -7 -18z"/>
</g>
</svg>
